<?xml version="1.0" encoding="UTF-8"?>
<svg id="Layer_2" data-name="Layer 2" xmlns="http://www.w3.org/2000/svg" viewBox="0 0 1192.66 632.94">
  <defs>
    <style>
      .cls-1, .cls-2, .cls-3, .cls-4 {
        fill: #fff;
      }

      .cls-5 {
        fill: #d4e056;
      }

      .cls-6, .cls-7, .cls-2, .cls-3, .cls-4, .cls-8, .cls-9 {
        isolation: isolate;
      }

      .cls-7, .cls-2, .cls-4, .cls-8 {
        font-family: Pacifico-Regular, Pacifico;
        font-size: 175px;
      }

      .cls-7, .cls-8 {
        stroke-width: 8px;
      }

      .cls-7, .cls-8, .cls-9 {
        fill: none;
        stroke: #fff;
        stroke-miterlimit: 10;
      }

      .cls-3, .cls-9 {
        font-family: Trykker-Regular, Trykker;
        font-size: 220px;
        letter-spacing: .08em;
      }

      .cls-4, .cls-8 {
        letter-spacing: .13em;
      }

      .cls-10 {
        fill: #3b7abd;
      }

      .cls-9 {
        stroke-width: 5px;
      }

      .cls-11 {
        fill: #f28243;
      }
    </style>
  </defs>
  <g id="Layer_2-2" data-name="Layer 2">
    <g>
      <path class="cls-10" d="m200,0C89.53,0,0,89.53,0,200s55.88,136.77,117.65,211.77c73.88,89.71,82.35,182.35,82.35,182.35,0,0,8.48-92.64,82.35-182.35,61.77-75,117.65-99.02,117.65-211.77S310.47,0,200,0h0Z"/>
      <rect class="cls-5" x="133.15" y="42.67" width="137.14" height="137.14" rx="14.91" ry="14.91" transform="translate(-19.58 175.22) rotate(-45)"/>
      <rect class="cls-11" x="30.11" y="143.69" width="137.14" height="137.14" rx="14.91" ry="14.91" transform="translate(-121.19 131.95) rotate(-45)"/>
      <path class="cls-1" d="m213.93,71.64c-2.05-.8-4.25-1.2-6.45-1.16-2.23.04-4.43.5-6.49,1.36-2.15.9-4.1,2.21-5.75,3.86-1.67,1.67-2.97,3.6-3.86,5.75-.86,2.06-1.33,4.26-1.36,6.49-.04,2.21.35,4.4,1.16,6.45.83,2.11,2.08,4.03,3.69,5.63l22.26,22.26c4.71,4.71,4.6,12.5-.27,17.37s-12.65,4.98-17.37.27l-10.26-10.26,2.79-2.79c.59-.59.6-1.52.03-2.09l-3.8-3.8c1.22-4.87-.02-10.17-3.74-13.9l-4.31-4.31,1.53-1.53c.58-.58.6-1.52.03-2.08l-4-4c-.47-.47-1.2-.54-1.77-.21l-6.2,6.2-10.14-10.14c-.56-.57-1.5-.55-2.08.03l-1.41,1.41c-.59.59-.6,1.52-.03,2.08l10.14,10.14-5.54,5.54-10.14-10.14c-.57-.57-1.5-.55-2.08.03l-1.41,1.41c-.58.58-.6,1.52-.03,2.08l10.14,10.14-6.2,6.2c-.34.57-.26,1.3.21,1.77l4,4c.57.57,1.5.55,2.08-.03l1.54-1.54,4.31,4.31c3.73,3.73,9.03,4.97,13.9,3.74l3.8,3.8c.57.57,1.5.55,2.08-.03l2.79-2.79,10.26,10.26c1.62,1.62,3.51,2.86,5.63,3.69,2.05.8,4.24,1.2,6.45,1.16,2.23-.03,4.43-.5,6.49-1.36,2.15-.9,4.08-2.2,5.75-3.87s2.97-3.6,3.87-5.75c.86-2.06,1.32-4.26,1.36-6.49.04-2.21-.35-4.4-1.16-6.45-.83-2.11-2.08-4.03-3.69-5.63l-22.26-22.26c-4.71-4.71-4.6-12.5.27-17.37s12.66-4.98,17.37-.27l34.23,34.23,3.53-3.53-34.23-34.23c-1.61-1.61-3.51-2.86-5.63-3.69"/>
      <rect class="cls-11" x="234.37" y="145.13" width="137.14" height="137.14" rx="14.91" ry="14.91" transform="translate(-62.38 276.8) rotate(-45)"/>
      <rect class="cls-5" x="130.62" y="246.85" width="137.14" height="137.14" rx="14.91" ry="14.91" transform="translate(-164.69 233.23) rotate(-45)"/>
      <g>
        <path class="cls-1" d="m237.55,275.4c-1.58,0-2.86,1.28-2.86,2.86v8.57h-17.63c-.86-2.43-2.79-4.36-5.22-5.22v-6.21h8.57c1.58,0,2.86-1.28,2.86-2.86s-1.28-2.86-2.86-2.86h-34.28c-1.58,0-2.86,1.28-2.86,2.86s1.28,2.86,2.86,2.86h8.57v6.21c-2.43.86-4.36,2.79-5.22,5.22h-20.49c-4.73,0-8.57,3.84-8.57,8.57v17.14c0,1.58,1.28,2.86,2.86,2.86h11.43c1.58,0,2.86-1.28,2.86-2.86v-8.57h11.92c1.18,3.33,4.35,5.71,8.08,5.71h11.43c3.72,0,6.9-2.39,8.08-5.71h17.63v8.57c0,1.58,1.28,2.86,2.86,2.86s2.86-1.28,2.86-2.86v-34.28c0-1.58-1.28-2.86-2.86-2.86h-.02Zm-48.57,22.86h-14.28c-1.58,0-2.86,1.28-2.86,2.86v8.57h-5.71v-14.28c0-1.58,1.28-2.86,2.86-2.86h20v5.71h0Zm11.43-22.86h5.71v5.71h-5.71v-5.71Zm11.43,25.71c0,1.58-1.28,2.86-2.86,2.86h-11.43c-1.58,0-2.86-1.28-2.86-2.86v-11.43c0-1.58,1.28-2.86,2.86-2.86h11.43c1.58,0,2.86,1.28,2.86,2.86v11.43h0Zm22.86-2.86h-17.14v-5.71h17.14v5.71h0Z"/>
        <path class="cls-1" d="m180.15,334.11l-8.94-11.21c-1.14-1.43-3.32-1.43-4.47,0l-8.94,11.21c-7.4,9.28-.8,23.18,11.17,23.18s18.58-13.9,11.17-23.18h.01Zm-11.17,17.47c-7.18,0-11.15-8.34-6.71-13.91l6.71-8.41,6.71,8.41c4.44,5.57.48,13.91-6.71,13.91Z"/>
      </g>
      <g>
        <path class="cls-1" d="m267.25,214.67c-1.72.28-3.3,1.08-4.54,2.32l-6.22,6.22c-1.57,1.57-2.43,3.66-2.43,5.89s.86,4.32,2.43,5.89l14.66,14.66c1.57,1.57,3.66,2.43,5.89,2.43s4.32-.86,5.89-2.43l6.22-6.22c1.28-1.28,2.05-2.88,2.32-4.55l-24.22-24.22h0Zm11.16,24.25c-.38.38-.88.57-1.37.57s-.99-.19-1.37-.57l-8.44-8.44c-.76-.76-.76-1.99,0-2.75s1.99-.76,2.75,0l8.44,8.44c.76.76.76,1.99,0,2.75h-.01Z"/>
        <path class="cls-1" d="m338.38,185.33l-17.57-10.09c-1.01-.58-2.27-.47-3.17.28l-45.74,38.3,20.68,20.68.99-2.47,4.59-1.84c.7-.28,1.26-.84,1.54-1.54l1.84-4.59,4.59-1.84c.7-.28,1.26-.84,1.54-1.54l1.84-4.59,4.59-1.84c.7-.28,1.26-.84,1.54-1.54l1.84-4.59,4.59-1.84c.7-.28,1.26-.84,1.54-1.54l1.84-4.59,4.59-1.84c.7-.28,1.26-.84,1.54-1.54l1.84-4.59,4.59-1.84c.99-.4,1.66-1.32,1.74-2.38s-.46-2.07-1.39-2.6l.02-.03Z"/>
      </g>
      <path class="cls-1" d="m87.18,237.45c3.28,3.28,8.61,3.28,11.89,0l9.91-9.91,17.84,17.84c3.28,3.28,8.61,3.28,11.89,0s3.28-8.61,0-11.89l-17.84-17.84,9.91-9.91c3.28-3.28,3.28-8.61,0-11.89l-11.89-11.89-3.96,3.96-19.82-23.79-39.64,39.64,23.79,19.82-3.96,3.96,11.89,11.89h-.01Zm-17.84-41.63l11.89,11.89,1.98-1.98-11.89-11.89,11.89-11.89,11.89,11.89,1.98-1.98-11.89-11.89,1.98-1.98,15.86,15.86,1.98-1.98-15.86-15.86,5.57-5.57,18.02,21.62-27.36,27.36-21.62-18.02,5.57-5.57h0Zm13.88,29.73l35.68-35.68,7.93,7.93c1.09,1.09,1.09,2.87,0,3.96l-13.88,13.88,21.8,21.8c1.09,1.09,1.09,2.87,0,3.96s-2.87,1.09-3.96,0l-21.8-21.8-13.88,13.88c-1.09,1.09-2.87,1.09-3.96,0l-7.93-7.93h0Z"/>
    </g>
    <g class="cls-6">
      <text class="cls-2" transform="translate(319.05 427.94)"><tspan x="0" y="0">My </tspan></text>
      <text class="cls-7" transform="translate(319.05 427.94)"><tspan x="0" y="0">My </tspan></text>
      <text class="cls-4" transform="translate(659.6 427.94)"><tspan x="0" y="0">H</tspan></text>
      <text class="cls-8" transform="translate(659.6 427.94)"><tspan x="0" y="0">H</tspan></text>
      <text class="cls-2" transform="translate(835.12 427.94)"><tspan x="0" y="0">ome</tspan></text>
      <text class="cls-7" transform="translate(835.12 427.94)"><tspan x="0" y="0">ome</tspan></text>
    </g>
    <g class="cls-6">
      <g class="cls-6">
        <path class="cls-10" d="m350.47,425.49c-1.87-1.92-2.8-5.57-2.8-10.94,0-3.61.38-8.25,1.14-13.91.76-5.66,2.01-13.45,3.76-23.36,3.03-18.32,5.43-34.18,7.18-47.6,1.05-8.4,1.57-15.4,1.57-21,0-5.25-1.92-7.88-5.77-7.88-3.04,0-6.68,1.55-10.94,4.64-4.26,3.09-8.96,8.02-14.09,14.79-1.64,2.22-3.44,3.33-5.42,3.33-1.64,0-3.06-.79-4.29-2.36s-1.84-3.35-1.84-5.34c0-1.86.38-3.76,1.14-5.69.76-1.92,2.01-4.11,3.76-6.56,5.6-7.81,11.84-13.85,18.73-18.11,6.88-4.26,13.76-6.39,20.65-6.39,6.41,0,11.34,2.04,14.79,6.12,3.44,4.09,5.16,10.04,5.16,17.85,0,3.15-.29,6.85-.88,11.11-.58,4.26-1.11,7.73-1.57,10.41-.47,2.69-.82,4.55-1.05,5.6,6.65-19.01,14.12-32.29,22.4-39.81,8.28-7.53,17.38-11.29,27.3-11.29,7.58,0,13.56,2.69,17.94,8.05,4.38,5.37,6.56,12.95,6.56,22.75,0,3.85-.52,8.63-1.58,14.35,5.83-16.1,12.66-27.65,20.48-34.65,7.81-7,16.8-10.5,26.95-10.5,8.16,0,14.44,2.62,18.81,7.88s6.56,12.6,6.56,22.05c0,5.13-.76,11.38-2.27,18.72l-10.68,50.05c-1.17,5.83-1.75,10.85-1.75,15.05,0,4.9,1.14,8.58,3.41,11.03s5.45,3.67,9.54,3.67c3.85,0,7.61-1.28,11.29-3.85,3.67-2.57,8.02-6.83,13.04-12.78,1.4-1.63,2.98-2.45,4.73-2.45,1.52,0,2.71.7,3.59,2.1.88,1.4,1.31,3.33,1.31,5.77,0,4.55-1.11,8.17-3.32,10.85-6.07,7.35-12.08,12.72-18.02,16.1-5.95,3.39-12.19,5.08-18.73,5.08-9.92,0-17.68-2.95-23.27-8.84-5.6-5.89-8.4-13.79-8.4-23.71,0-6.88,1.4-16.86,4.2-29.92l7-32.03c.23-1.05.64-2.92,1.23-5.6.58-2.68,1.05-5.22,1.4-7.61.35-2.39.52-4.75.52-7.09,0-4.08-.79-7.15-2.36-9.19-1.58-2.04-3.82-3.06-6.74-3.06-5.48,0-11.23,3.53-17.24,10.59-6.01,7.06-11.73,18.76-17.15,35.09-5.43,16.33-9.83,37.57-13.21,63.7-.82,7-2.25,11.7-4.29,14.09-2.04,2.39-5.34,3.59-9.89,3.59-3.97,0-6.85-.93-8.66-2.8-1.81-1.87-2.71-5.37-2.71-10.5,0-4.78.64-11.05,1.93-18.81,1.28-7.76,2.91-16.89,4.9-27.39,5.36-28.23,8.05-46.43,8.05-54.6,0-4.43-.85-7.7-2.54-9.8-1.69-2.1-4.23-3.15-7.61-3.15-5.72,0-11.61,3.24-17.67,9.71-6.07,6.48-11.99,17.97-17.76,34.48-5.77,16.51-10.59,38.82-14.44,66.94-.82,5.95-2.01,10.09-3.59,12.42-1.58,2.33-4.64,3.5-9.19,3.5s-7.41-.96-9.27-2.89Z"/>
        <path class="cls-10" d="m636.33,391.01c.88,1.46,1.31,3.3,1.31,5.51,0,2.68-.41,4.79-1.22,6.3-.82,1.52-2.1,2.86-3.85,4.02l-33.6,22.58c-4.43,24.15-10.24,43.14-17.41,56.96s-16.31,20.74-27.39,20.74c-5.95,0-10.79-1.84-14.52-5.51-3.73-3.67-5.6-8.49-5.6-14.44,0-5.49,1.25-11.08,3.76-16.8,2.51-5.72,7.17-12.28,14-19.69,6.83-7.41,16.48-15.9,28.96-25.46l.52-4.02c.81-4.32,1.75-10.5,2.8-18.55-2.34,8.4-5.6,14.79-9.8,19.16-4.2,4.38-8.63,6.56-13.3,6.56-5.25,0-9.54-2.42-12.86-7.26-3.33-4.84-4.99-10.88-4.99-18.11,0-8.75.58-16.77,1.75-24.06,1.17-7.29,3.09-15.02,5.77-23.19,1.17-3.5,2.8-6.01,4.9-7.53,2.1-1.51,5.42-2.27,9.97-2.27,2.56,0,4.35.41,5.34,1.22.99.82,1.49,2.04,1.49,3.67,0,.94-.64,4.09-1.92,9.45-1.17,4.32-2.1,8.23-2.8,11.73-.94,4.79-1.75,9.36-2.45,13.74-.7,4.38-1.05,7.96-1.05,10.76,0,4.43,1.23,6.65,3.68,6.65,1.75,0,3.94-1.75,6.56-5.25s5.42-8.81,8.4-15.92c2.98-7.12,5.86-15.87,8.66-26.25.93-3.5,2.36-6.01,4.29-7.53,1.92-1.51,4.81-2.27,8.66-2.27,2.68,0,4.55.35,5.6,1.05s1.58,1.87,1.58,3.5c0,2.92-1.52,12.95-4.55,30.1l-4.55,28.18c8.98-6.77,17.73-12.95,26.25-18.55,1.51-.93,2.86-1.4,4.03-1.4,1.51,0,2.71.73,3.59,2.19Zm-70.44,88.99c3.61-6.77,7.23-18.03,10.85-33.78-8.99,7.58-15.49,14.5-19.51,20.74-4.02,6.24-6.04,11.69-6.04,16.36,0,1.98.38,3.61,1.14,4.9.76,1.28,2.01,1.93,3.76,1.93,2.91,0,6.18-3.39,9.8-10.15Z"/>
      </g>
      <g class="cls-6">
        <path class="cls-10" d="m833.73,390.58c.88,1.4,1.31,3.33,1.31,5.77,0,4.55-1.11,8.17-3.33,10.85-11.55,14.12-23.86,21.17-36.92,21.17-11.32,0-20.36-4.38-27.12-13.12-6.77-8.75-10.15-21.29-10.15-37.62,0-3.96.17-7.93.52-11.9-7.7,1.4-16.1,2.45-25.2,3.15-6.07.47-10.21.76-12.42.88-2.33,11.9-5.6,26.49-9.8,43.75-2.45,10.15-7.12,15.22-14,15.22-7.47,0-11.2-3.38-11.2-10.15,0-1.51.29-3.62.88-6.3,3.96-15.98,7.12-29.52,9.45-40.6l-8.4.35c-3.85,0-6.65-.67-8.4-2.01-1.75-1.34-2.62-3.53-2.62-6.56,0-3.85,1.11-6.68,3.33-8.49,2.21-1.81,5.89-2.83,11.02-3.06l9.28-.35c3.03-16.45,4.55-28.99,4.55-37.62,0-5.48-.82-9.21-2.45-11.2-1.63-1.98-3.79-2.97-6.47-2.97-8.17,0-17.39,6.83-27.65,20.47-1.52,1.99-3.21,2.98-5.08,2.98-1.63,0-3.04-.76-4.2-2.28-1.17-1.51-1.75-3.44-1.75-5.77,0-3.62,1.46-7.46,4.38-11.55,5.13-7.11,11.61-12.98,19.42-17.59,7.81-4.61,15.75-6.91,23.8-6.91,7.58,0,13.45,2.6,17.59,7.79,4.14,5.19,6.21,13.27,6.21,24.24,0,9.69-1.4,22.81-4.2,39.38l17.15-.88c7.35-.35,13.65-.93,18.9-1.75,2.1-12.83,5.31-24.85,9.62-36.05,4.31-11.2,9.68-20.3,16.1-27.3,6.42-7,13.59-10.5,21.53-10.5,5.83,0,10.44,2.3,13.82,6.91,3.38,4.61,5.08,10.65,5.08,18.11,0,28.94-14.76,49-44.27,60.2-.35,4.67-.53,9.51-.53,14.53,0,12.25,1.51,20.94,4.55,26.07,3.03,5.14,7.29,7.7,12.78,7.7,4.78,0,9.16-1.25,13.12-3.76,3.96-2.51,8.46-6.79,13.47-12.86,1.4-1.63,2.98-2.45,4.73-2.45,1.51,0,2.71.7,3.59,2.1Zm-35.35-94.33c-2.86,4.67-5.57,11.03-8.14,19.08-2.57,8.05-4.61,16.86-6.12,26.42,9.33-3.85,16.21-9.33,20.65-16.45,4.43-7.11,6.65-16.27,6.65-27.47,0-2.68-.47-4.78-1.4-6.3-.94-1.52-2.1-2.28-3.5-2.28-2.57,0-5.28,2.33-8.14,7Z"/>
      </g>
      <g class="cls-6">
        <path class="cls-10" d="m936.36,376.05c.82,1.52,1.23,3.44,1.23,5.78,0,5.6-1.69,8.92-5.08,9.97-7,2.45-14.7,3.85-23.1,4.2-2.22,9.8-6.59,17.65-13.12,23.54-6.54,5.89-13.94,8.84-22.22,8.84-7,0-12.98-1.69-17.94-5.08-4.96-3.38-8.72-7.88-11.29-13.47-2.57-5.6-3.85-11.67-3.85-18.2,0-8.87,1.69-16.77,5.08-23.71,3.38-6.94,8.05-12.36,14-16.27,5.95-3.91,12.54-5.86,19.77-5.86,8.86,0,16.01,3.06,21.44,9.19s8.6,13.68,9.54,22.66c5.48-.35,12.01-1.51,19.6-3.5.93-.23,1.75-.35,2.45-.35,1.52,0,2.68.76,3.5,2.27Zm-51.19,29.23c2.74-3.03,4.58-7.41,5.51-13.12-3.62-2.45-6.39-5.66-8.31-9.62-1.93-3.96-2.89-8.17-2.89-12.6,0-1.86.18-3.73.53-5.6h-.88c-4.67,0-8.55,2.25-11.64,6.74-3.09,4.49-4.64,10.82-4.64,18.99,0,6.42,1.25,11.32,3.76,14.7,2.51,3.38,5.45,5.08,8.84,5.08,3.73,0,6.97-1.51,9.71-4.55Z"/>
        <path class="cls-10" d="m925.6,421.38c-1.81-4.67-2.71-12.13-2.71-22.4,0-15.16,2.16-29.57,6.47-43.22,1.05-3.38,2.77-5.86,5.16-7.44,2.39-1.58,5.75-2.36,10.06-2.36,2.33,0,3.96.29,4.9.88.93.58,1.4,1.69,1.4,3.33,0,1.87-.88,6.07-2.62,12.6-1.17,4.67-2.1,8.72-2.8,12.16-.7,3.44-1.29,7.73-1.75,12.86,3.15-9.1,6.91-16.8,11.29-23.1s8.87-11,13.48-14.09c4.61-3.09,8.95-4.64,13.04-4.64s6.97.93,8.66,2.8c1.69,1.87,2.54,4.72,2.54,8.58s-1.11,10.5-3.33,20.3c-.94,4.2-1.58,7.35-1.92,9.45,5.83-14.35,12.31-24.79,19.42-31.33,7.12-6.53,13.76-9.8,19.95-9.8,7.58,0,11.38,3.79,11.38,11.38,0,4.55-1.29,12.77-3.85,24.67-2.22,10.15-3.32,16.86-3.32,20.12,0,4.67,1.69,7,5.07,7,2.33,0,5.1-1.43,8.31-4.29,3.21-2.86,7.5-7.5,12.86-13.91,1.4-1.63,2.97-2.45,4.72-2.45,1.51,0,2.71.7,3.59,2.1.88,1.4,1.31,3.33,1.31,5.77,0,4.67-1.11,8.29-3.33,10.85-5.02,6.18-10.41,11.26-16.19,15.22-5.78,3.97-12.34,5.95-19.69,5.95-5.95,0-10.44-1.72-13.48-5.16-3.04-3.44-4.55-8.43-4.55-14.96,0-3.26.82-9.1,2.45-17.5,1.51-7.35,2.28-12.42,2.28-15.22,0-1.87-.64-2.8-1.93-2.8-1.52,0-3.67,1.96-6.47,5.86-2.8,3.91-5.6,9.07-8.4,15.49-2.8,6.42-5.07,13.18-6.82,20.3-1.29,5.6-2.77,9.33-4.46,11.2-1.69,1.87-4.41,2.8-8.14,2.8s-6.74-1.84-8.66-5.51-2.89-8.14-2.89-13.39c0-4.43.58-10.85,1.75-19.25.93-7.46,1.4-12.36,1.4-14.7,0-1.87-.64-2.8-1.93-2.8-1.75,0-3.97,2.1-6.65,6.3-2.69,4.2-5.28,9.57-7.79,16.1-2.51,6.54-4.52,12.95-6.04,19.25-1.29,5.49-2.77,9.19-4.46,11.11-1.69,1.92-4.35,2.89-7.96,2.89-4.44,0-7.56-2.33-9.36-7Z"/>
        <path class="cls-10" d="m1134.37,390.58c.88,1.4,1.31,3.33,1.31,5.77,0,4.67-1.11,8.29-3.33,10.85-4.32,5.25-10.41,10.09-18.29,14.52-7.88,4.44-16.3,6.65-25.29,6.65-12.25,0-21.76-3.33-28.53-9.97-6.77-6.65-10.15-15.75-10.15-27.3,0-8.05,1.69-15.54,5.08-22.49,3.38-6.94,8.08-12.45,14.09-16.54,6.01-4.08,12.8-6.12,20.39-6.12,6.76,0,12.19,2.01,16.28,6.04,4.08,4.03,6.12,9.48,6.12,16.36,0,8.05-2.89,14.96-8.66,20.74-5.77,5.77-15.55,10.35-29.31,13.74,2.92,5.37,8.46,8.05,16.62,8.05,5.25,0,11.23-1.84,17.94-5.51,6.71-3.67,12.51-8.49,17.41-14.44,1.4-1.63,2.97-2.45,4.72-2.45,1.51,0,2.71.7,3.59,2.1Zm-58.62-19.95c-2.98,5.02-4.46,11.08-4.46,18.2v.35c6.88-1.63,12.31-4.08,16.28-7.35,3.96-3.26,5.95-7.06,5.95-11.38,0-2.21-.61-4-1.84-5.34-1.22-1.34-2.89-2.01-4.99-2.01-4.32,0-7.96,2.51-10.94,7.53Z"/>
      </g>
    </g>
    <g class="cls-6">
      <text class="cls-3" transform="translate(205.56 572.54)"><tspan x="0" y="0">Services</tspan></text>
      <text class="cls-9" transform="translate(205.56 572.54)"><tspan x="0" y="0">Services</tspan></text>
    </g>
    <g class="cls-6">
      <path class="cls-11" d="m228.21,528.34c3.15-.36,5.98.14,8.49,1.5,0,8.95.39,15,1.18,18.15,6.02,5.44,13.54,9.67,22.56,12.68,4.73,1.5,9.51,2.26,14.34,2.26s8.95-.48,12.35-1.45c3.4-.97,6.35-2.52,8.86-4.67,5.44-4.65,8.16-11.64,8.16-20.95,0-7.3-4.19-13.93-12.57-19.87-3.72-2.72-7.99-5.3-12.78-7.73l-14.72-7.3c-12.61-6.37-21.27-11.83-26-16.38-4.73-4.55-8.24-9.11-10.53-13.7-2.29-4.58-3.44-10.01-3.44-16.27s1.29-12.16,3.87-17.67c2.58-5.51,6.16-10.24,10.74-14.18,9.67-8.45,21.81-12.68,36.42-12.68,15.32,0,30.19,4.19,44.58,12.57l-7.63,33.52c-2.44.43-5.19.04-8.27-1.18,0-2.36-.07-4.62-.21-6.77-.14-2.15-.29-4.3-.43-6.45-.14-2.15-.39-3.94-.75-5.37-10.38-8.23-22.92-12.35-37.6-12.35-7.38,0-13.14,2.29-17.29,6.88-3.8,4.08-5.69,9.06-5.69,14.93s1.16,10.49,3.49,13.86c2.33,3.37,5.37,6.45,9.13,9.24s8.04,5.41,12.84,7.84l14.82,7.52c12.89,6.59,21.68,12.18,26.37,16.76,4.69,4.58,8.2,9.26,10.53,14.02,2.33,4.76,3.49,10.42,3.49,16.97s-1.34,12.57-4.03,18.05-6.43,10.15-11.23,14.02c-10.03,7.88-23.31,11.82-39.85,11.82-13.96,0-25.89-2.33-35.77-6.98-4.44-2-8.09-4.33-10.96-6.98l7.52-33.62Z"/>
      <path class="cls-11" d="m445.94,547.67c3.72,1.5,5.76,4.15,6.12,7.95-10.96,10.38-21.99,16.87-33.09,19.44-2.44.57-4.91.86-7.41.86-15.04,0-27.25-5.3-36.63-15.9-9.31-10.38-13.96-23.35-13.96-38.89,0-16.9,5.55-31.44,16.65-43.61,5.08-5.59,10.96-9.99,17.62-13.21s13.41-4.83,20.25-4.83,12.64,1.2,17.4,3.6c4.76,2.4,8.72,5.64,11.87,9.72,6.3,8.02,9.45,18.26,9.45,30.72,0,3.51-.32,6.55-.97,9.13-.79,1.79-15.51,2.69-44.15,2.69-9.53,0-19.59-.14-30.19-.43.14,13.68,4.55,24.71,13.21,33.09,7.73,7.45,16.47,11.17,26.21,11.17s18.94-3.83,27.61-11.49Zm-58.12-42.65c21.48,0,37.17-.68,47.05-2.04,0-7.66-2.29-14.72-6.88-21.16-5.01-6.95-10.99-10.42-17.94-10.42-7.59,0-14.14,2.83-19.66,8.49-5.95,5.95-9.6,14.32-10.96,25.14h8.38Z"/>
      <path class="cls-11" d="m562.8,484.73c-4.08-4.87-8.88-7.3-14.39-7.3-4.73,0-10.42,4.69-17.08,14.07-2.87,4.08-5.62,8.74-8.27,13.96v52.85l26.96,3.65.43,1.5-1.18,8.59h-57.79l-.75-.97.97-8.16,14.29-4.62v-71.76l-15.04-6.55-.97-1.29.97-5.8,28.36-11.39,1.72.97,2.04,27.82c6.09-15.68,14.21-25.53,24.38-29.54,2.29-.86,5.55-1.29,9.78-1.29s8.56,1.18,13,3.54c-.29,9.6-2.76,16.83-7.41,21.7Z"/>
      <path class="cls-11" d="m607.9,476.24l-12.35-3.12-.86-1.29,1.4-8.59h45.22l.75,1.07-1.07,7.84-11.82,4.08,27.82,75.3,28.25-75.62-14.82-2.79-.54-1.29,1.29-8.59h40.5l.75,1.07-1.61,8.81-12.46,3.12-39.1,93.89c-1.15,2.29-4.76,3.76-10.85,4.4l-40.5-98.29Z"/>
      <path class="cls-11" d="m750.43,562.93l14.18-4.62v-71.01l-14.93-6.34-1.18-1.29,1.18-5.8,30.29-12.35,1.83.97v95.82l17.19,3.65.43,1.5-1.18,8.59h-48.12l-.75-.97,1.07-8.16Zm32.5-126.17c-1.97,2.04-3.78,3.46-5.42,4.24-1.65.79-3.28,1.18-4.89,1.18s-3.19-.34-4.73-1.02c-1.54-.68-2.92-1.59-4.14-2.74-2.79-2.51-4.19-4.94-4.19-7.3s.34-4.31,1.02-5.85c.68-1.54,1.59-2.95,2.74-4.24,2.58-2.86,5.59-4.3,9.02-4.3,3.15,0,5.8.93,7.95,2.79,3.72,3.22,5.59,6.34,5.59,9.35,0,3.22-.99,5.85-2.95,7.9Z"/>
      <path class="cls-11" d="m915.31,483.97c-9.81-8.23-19.91-12.35-30.29-12.35-8.09,0-15.11,4.23-21.05,12.68-5.87,8.38-8.81,18.41-8.81,30.08,0,13.75,4.33,24.89,13,33.41,7.66,7.59,16.44,11.39,26.32,11.39,11.1,0,20.34-3.83,27.71-11.49,4.01,1.79,6.02,4.44,6.02,7.95-11.1,10.38-21.7,16.87-31.8,19.44-2.22.57-4.4.86-6.55.86-16.19,0-29.11-5.3-38.78-15.9-9.24-10.1-13.86-23.06-13.86-38.89,0-17.04,5.8-31.58,17.4-43.61s25.53-18.05,41.79-18.05c12.17,0,21.59,2.44,28.25,7.3-.36,3.65-1.47,7-3.33,10.04-1.86,3.04-3.87,5.42-6.02,7.14Z"/>
      <path class="cls-11" d="m1047.42,547.67c3.72,1.5,5.76,4.15,6.12,7.95-10.96,10.38-21.99,16.87-33.09,19.44-2.44.57-4.91.86-7.41.86-15.04,0-27.25-5.3-36.63-15.9-9.31-10.38-13.96-23.35-13.96-38.89,0-16.9,5.55-31.44,16.65-43.61,5.08-5.59,10.96-9.99,17.62-13.21s13.41-4.83,20.25-4.83,12.64,1.2,17.4,3.6c4.76,2.4,8.72,5.64,11.87,9.72,6.3,8.02,9.45,18.26,9.45,30.72,0,3.51-.32,6.55-.97,9.13-.79,1.79-15.51,2.69-44.15,2.69-9.53,0-19.59-.14-30.19-.43.14,13.68,4.55,24.71,13.21,33.09,7.73,7.45,16.47,11.17,26.21,11.17s18.94-3.83,27.61-11.49Zm-58.12-42.65c21.48,0,37.17-.68,47.05-2.04,0-7.66-2.29-14.72-6.88-21.16-5.01-6.95-10.99-10.42-17.94-10.42-7.59,0-14.14,2.83-19.66,8.49-5.95,5.95-9.6,14.32-10.96,25.14h8.38Z"/>
      <path class="cls-11" d="m1152.78,481.29c-9.17-7.09-18.51-10.63-28.04-10.63-6.38,0-10.67,3.08-12.89,9.24-.72,1.79-1.07,4.05-1.07,6.77s.77,5.32,2.31,7.79c1.54,2.47,3.58,4.67,6.12,6.61,2.54,1.93,5.46,3.69,8.75,5.26l9.88,4.83c8.88,4.3,14.86,7.99,17.94,11.06,6.16,6.3,9.24,13.64,9.24,22.02,0,9.38-3.94,17.08-11.82,23.1-7.66,5.73-17.22,8.59-28.68,8.59-9.6,0-17.06-.99-22.4-2.95-5.34-1.97-9.08-3.71-11.23-5.21.5-6.59,3.12-12.07,7.84-16.44,7.02,6.02,14.57,10.13,22.67,12.35,2.79.72,5.5,1.07,8.11,1.07s5.08-.29,7.41-.86c2.33-.57,4.35-1.5,6.07-2.79,3.94-2.72,5.91-6.25,5.91-10.58s-.77-7.72-2.31-10.15c-1.54-2.43-3.58-4.58-6.12-6.45-2.54-1.86-5.42-3.54-8.65-5.05l-10.1-4.51c-8.67-3.94-14.57-7.52-17.72-10.74-6.23-6.37-9.35-13.86-9.35-22.45,0-9.02,3.72-16.58,11.17-22.67,7.23-6.02,16.26-9.02,27.07-9.02,10.17,0,19.69,1.61,28.57,4.83-.5,3.29-1.61,6.5-3.33,9.61s-3.51,5.57-5.37,7.36Z"/>
    </g>
  </g>
</svg>