<?xml version="1.0" encoding="UTF-8"?>
<svg id="Layer_2" data-name="Layer 2" xmlns="http://www.w3.org/2000/svg" viewBox="0 0 1192.65 632.94">
  <defs>
    <style>
      .cls-1, .cls-2, .cls-3 {
        fill: #fff;
      }

      .cls-4, .cls-3 {
        font-family: Trykker-Regular, Trykker;
        font-size: 220px;
        letter-spacing: .08em;
      }

      .cls-4, .cls-5 {
        fill: #f28243;
      }

      .cls-6 {
        letter-spacing: 0em;
      }

      .cls-7 {
        fill: #d4e056;
      }

      .cls-2 {
        stroke-width: 8px;
      }

      .cls-2, .cls-8 {
        font-family: Pacifico-Regular, Pacifico;
        font-size: 175px;
      }

      .cls-2, .cls-3 {
        stroke: #fff;
        stroke-miterlimit: 10;
      }

      .cls-8, .cls-9 {
        fill: #3b7abd;
      }

      .cls-3 {
        stroke-width: 5px;
      }

      .cls-10 {
        letter-spacing: .13em;
      }
    </style>
  </defs>
  <g id="Layer_1-2" data-name="Layer 1">
    <g>
      <path class="cls-9" d="m200,0C89.53,0,0,89.53,0,200s55.88,136.77,117.65,211.77c73.88,89.71,82.35,182.35,82.35,182.35,0,0,8.48-92.64,82.35-182.35,61.77-75,117.65-99.02,117.65-211.77,0-110.47-89.53-200-200-200Z"/>
      <rect class="cls-7" x="133.15" y="42.67" width="137.14" height="137.14" rx="14.91" ry="14.91" transform="translate(-19.58 175.22) rotate(-45)"/>
      <rect class="cls-5" x="30.11" y="143.69" width="137.14" height="137.14" rx="14.91" ry="14.91" transform="translate(-121.19 131.95) rotate(-45)"/>
      <path class="cls-1" d="m213.93,71.64c-2.05-.8-4.25-1.2-6.45-1.16-2.23.04-4.43.5-6.49,1.36-2.15.9-4.1,2.21-5.75,3.86-1.67,1.67-2.97,3.6-3.86,5.75-.86,2.06-1.33,4.26-1.36,6.49-.04,2.21.35,4.4,1.16,6.45.83,2.11,2.08,4.03,3.69,5.63l22.26,22.26c4.71,4.71,4.6,12.5-.27,17.37s-12.65,4.98-17.37.27l-10.26-10.26,2.79-2.79c.59-.59.6-1.52.03-2.09l-3.8-3.8c1.22-4.87-.02-10.17-3.74-13.9l-4.31-4.31,1.53-1.53c.58-.58.6-1.52.03-2.08l-4-4c-.47-.47-1.2-.54-1.77-.21l-6.2,6.2-10.14-10.14c-.56-.57-1.5-.55-2.08.03l-1.41,1.41c-.59.59-.6,1.52-.03,2.08l10.14,10.14-5.54,5.54-10.14-10.14c-.57-.57-1.5-.55-2.08.03l-1.41,1.41c-.58.58-.6,1.52-.03,2.08l10.14,10.14-6.2,6.2c-.34.57-.26,1.3.21,1.77l4,4c.57.57,1.5.55,2.08-.03l1.54-1.54,4.31,4.31c3.73,3.73,9.03,4.97,13.9,3.74l3.8,3.8c.57.57,1.5.55,2.08-.03l2.79-2.79,10.26,10.26c1.62,1.62,3.51,2.86,5.63,3.69,2.05.8,4.24,1.2,6.45,1.16,2.23-.03,4.43-.5,6.49-1.36,2.15-.9,4.08-2.2,5.75-3.87s2.97-3.6,3.87-5.75c.86-2.06,1.32-4.26,1.36-6.49.04-2.21-.35-4.4-1.16-6.45-.83-2.11-2.08-4.03-3.69-5.63l-22.26-22.26c-4.71-4.71-4.6-12.5.27-17.37s12.66-4.98,17.37-.27l34.23,34.23,3.53-3.53-34.23-34.23c-1.61-1.61-3.51-2.86-5.63-3.69"/>
      <rect class="cls-5" x="234.37" y="145.12" width="137.14" height="137.14" rx="14.91" ry="14.91" transform="translate(-62.37 276.81) rotate(-45)"/>
      <rect class="cls-7" x="130.63" y="246.85" width="137.14" height="137.14" rx="14.91" ry="14.91" transform="translate(-164.7 233.24) rotate(-45)"/>
      <g>
        <path class="cls-1" d="m237.55,275.4c-1.58,0-2.86,1.28-2.86,2.86v8.57h-17.63c-.86-2.43-2.79-4.36-5.22-5.22v-6.21h8.57c1.58,0,2.86-1.28,2.86-2.86s-1.28-2.86-2.86-2.86h-34.28c-1.58,0-2.86,1.28-2.86,2.86s1.28,2.86,2.86,2.86h8.57v6.21c-2.43.86-4.36,2.79-5.22,5.22h-20.49c-4.73,0-8.57,3.84-8.57,8.57v17.14c0,1.58,1.28,2.86,2.86,2.86h11.43c1.58,0,2.86-1.28,2.86-2.86v-8.57h11.92c1.18,3.33,4.35,5.71,8.08,5.71h11.43c3.72,0,6.9-2.39,8.08-5.71h17.63v8.57c0,1.58,1.28,2.86,2.86,2.86s2.86-1.28,2.86-2.86v-34.28c0-1.58-1.28-2.86-2.86-2.86Zm-48.57,22.86h-14.28c-1.58,0-2.86,1.28-2.86,2.86v8.57h-5.71v-14.28c0-1.58,1.28-2.86,2.86-2.86h20v5.71h0Zm11.43-22.86h5.71v5.71h-5.71v-5.71Zm11.43,25.71c0,1.58-1.28,2.86-2.86,2.86h-11.43c-1.58,0-2.86-1.28-2.86-2.86v-11.43c0-1.58,1.28-2.86,2.86-2.86h11.43c1.58,0,2.86,1.28,2.86,2.86v11.43h0Zm22.86-2.86h-17.14v-5.71h17.14v5.71h0Z"/>
        <path class="cls-1" d="m180.15,334.11l-8.94-11.21c-1.14-1.43-3.32-1.43-4.47,0l-8.94,11.21c-7.4,9.28-.8,23.18,11.17,23.18s18.58-13.9,11.17-23.18Zm-11.17,17.47c-7.18,0-11.15-8.34-6.71-13.91l6.71-8.41,6.71,8.41c4.44,5.57.48,13.91-6.71,13.91Z"/>
      </g>
      <g>
        <path class="cls-1" d="m267.25,214.67c-1.72.28-3.3,1.08-4.54,2.32l-6.22,6.22c-1.57,1.57-2.43,3.66-2.43,5.89s.86,4.32,2.43,5.89l14.66,14.66c1.57,1.57,3.66,2.43,5.89,2.43s4.32-.86,5.89-2.43l6.22-6.22c1.28-1.28,2.05-2.88,2.32-4.55l-24.22-24.22Zm11.16,24.25c-.38.38-.88.57-1.37.57s-.99-.19-1.37-.57l-8.44-8.44c-.76-.76-.76-1.99,0-2.75.76-.76,1.99-.76,2.75,0l8.44,8.44c.76.76.76,1.99,0,2.75Z"/>
        <path class="cls-1" d="m338.38,185.33l-17.57-10.09c-1.01-.58-2.27-.47-3.17.28l-45.74,38.3,20.68,20.68.99-2.47,4.59-1.84c.7-.28,1.26-.84,1.54-1.54l1.84-4.59,4.59-1.84c.7-.28,1.26-.84,1.54-1.54l1.84-4.59,4.59-1.84c.7-.28,1.26-.84,1.54-1.54l1.84-4.59,4.59-1.84c.7-.28,1.26-.84,1.54-1.54l1.84-4.59,4.59-1.84c.7-.28,1.26-.84,1.54-1.54l1.84-4.59,4.59-1.84c.99-.4,1.66-1.32,1.74-2.38.08-1.06-.46-2.07-1.39-2.6Z"/>
      </g>
      <path class="cls-1" d="m87.18,237.45c3.28,3.28,8.61,3.28,11.89,0l9.91-9.91,17.84,17.84c3.28,3.28,8.61,3.28,11.89,0s3.28-8.61,0-11.89l-17.84-17.84,9.91-9.91c3.28-3.28,3.28-8.61,0-11.89l-11.89-11.89-3.96,3.96-19.82-23.79-39.64,39.64,23.79,19.82-3.96,3.96,11.89,11.89Zm-17.84-41.63l11.89,11.89,1.98-1.98-11.89-11.89,11.89-11.89,11.89,11.89,1.98-1.98-11.89-11.89,1.98-1.98,15.86,15.86,1.98-1.98-15.86-15.86,5.57-5.57,18.02,21.62-27.36,27.36-21.62-18.02,5.57-5.57Zm13.88,29.73l35.68-35.68,7.93,7.93c1.09,1.09,1.09,2.87,0,3.96l-13.88,13.88,21.8,21.8c1.09,1.09,1.09,2.87,0,3.96s-2.87,1.09-3.96,0l-21.8-21.8-13.88,13.88c-1.09,1.09-2.87,1.09-3.96,0l-7.93-7.93Z"/>
    </g>
    <text class="cls-2" transform="translate(319.05 427.94)"><tspan x="0" y="0">My </tspan><tspan class="cls-10" x="340.55" y="0">H</tspan><tspan class="cls-6" x="516.07" y="0">ome</tspan></text>
    <text class="cls-8" transform="translate(319.14 427.5)"><tspan x="0" y="0">My </tspan><tspan class="cls-10" x="340.55" y="0">H</tspan><tspan class="cls-6" x="516.07" y="0">ome</tspan></text>
    <text class="cls-3" transform="translate(205.56 572.54)"><tspan x="0" y="0">Services</tspan></text>
    <text class="cls-4" transform="translate(206.3 572.06)"><tspan x="0" y="0">Services</tspan></text>
  </g>
</svg>